Genre:Animation | Short | Action | Adventure
Language:English  http://www.imdb.com/title/tt1701223/
Source:1080p.BluRay.x264-aAF

General
Complete name :Superman.Shazam.The.Return.of.Black.Adam.720p.BRRip.H264.Feel-Free
Format : MPEG-4
Format profile : Base Media / Version 2
Codec ID : mp42
File size : 321 MiB
Duration : 24mn 26s
Overall bit rate : 1 837 Kbps
Video #1
Codec ID : avc1
Codec ID/Info : Advanced Video Coding
Duration : 24mn 26s
Bit rate mode : Variable
Bit rate : 1 260 Kbps
Width : 1 280 pixels
Height : 720 pixels
Display aspect ratio : 16:9
Frame rate mode : Constant
Frame rate : 23.976 fps
Resolution : 24 bits
Colorimetry : 4:2:0
Scan type : Progressive
Bits/(Pixel*Frame) : 0.057
Stream size : 220 MiB (69%)
Audio #2
ID : 2
Format : AAC
Format/Info : Advanced Audio Codec
Format version : Version 4
Format profile : LC
Format settings, SBR : No
Codec ID : 40
Duration : 24mn 26s
Bit rate mode : Constant
Bit rate : 576 Kbps
Channel(s) : 6 channels
Channel positions : Front: L C R, Rear: L R, LFE
Sampling rate : 48.0 KHz
Resolution : 16 bits
Stream size : 100 MiB (31%)

Plot:
Superman finds a foe who may be too powerful even for him to defeat in the murderous Black Adam. Fortunately, Black Adam's real target is the Earth's Mightiest Mortal--Captain Marvel.

